<svg xmlns="http://www.w3.org/2000/svg" width="572" height="106" fill="none"><path fill="#fff" d="M100.52 57.06h9.52V33.74l17.21 23.32h11.27l-18.43-24 17.83-23.6h-11.08l-16.8 22.85V9.46h-9.52v47.6ZM141.14 57.06h9.24V36.12c0-4.76 2.66-7.21 6.8-7.21 4.49 0 6.46 2.92 6.46 7v21.15h9.25V34.42c0-8.5-4.83-13.53-12.51-13.53-5 0-8.64 1.76-10.4 5V21.7h-8.84v35.36ZM193.74 57.88c10.61 0 16.66-6.94 16.66-16v-5c0-9-6-16-16.66-16s-16.66 6.93-16.66 16v5c0 9.06 6.05 16 16.66 16Zm7.69-15.37c0 4.62-2.45 8.09-7.69 8.09s-7.68-3.47-7.68-8.09v-6.26c0-4.62 2.45-8.09 7.68-8.09 5.23 0 7.69 3.47 7.69 8.09v6.26ZM262.17 21.7h-9l-5.15 23.73-7.2-23.73h-8.44l-7.21 23.73-5.16-23.73h-9l9.18 35.36h8.64l7.75-24.34 7.75 24.34h8.64l9.2-35.36ZM265.16 57.06h9.25V7.42h-9.25v49.64ZM295.64 57.88c7.82 0 14.15-4.69 15.37-11.15h-8.09c-.89 2.44-3.33 4.48-7.28 4.48-5.37 0-7.48-3.6-7.48-7.75v-.88h23.12v-6.19c0-8.5-5.3-15.5-15.77-15.5-10.47 0-16.33 6.8-16.33 16.38v4.83c0 9.9 6.46 15.78 16.46 15.78Zm-7.48-22.17c0-4.76 2-8.3 7.35-8.3 5 0 7.27 3.34 7.27 7.76v.88h-14.62v-.34ZM329.13 57.88c5.1 0 8.7-2.31 10.47-5v4.21h8.84V7.42h-9.25v18.09c-2-2.65-5.44-4.62-10.13-4.62-9.52 0-14.82 7.07-14.82 15.57v5.85c0 8.36 5.37 15.57 14.89 15.57Zm2.24-7.48c-5.37 0-7.88-3.81-7.88-8.5v-5c0-5 2.72-8.5 7.95-8.5 4.22 0 7.75 3 7.75 8.36v5.14c0 4.96-3.12 8.5-7.82 8.5ZM370.01 69.71c9.86 0 16.93-5.85 16.93-13.39V21.7h-8.84V26c-1.22-2.38-5-5.1-10.47-5.1-9.66 0-14.62 6.8-14.62 14.68v5.17c0 7.75 5 14.69 14.55 14.69 4.56 0 8.64-2.38 10.13-4.83v5.58c0 3.94-3 6.53-7.68 6.53-3.6 0-6.39-1.09-7.62-3.54h-9c1.46 6.66 8.32 10.53 16.62 10.53ZM369.74 48c-5 0-7.55-3.27-7.55-7.75v-4.06c0-4.83 2.65-7.89 7.82-7.89 4.42 0 7.68 3.13 7.68 7.89v4.08c0 4.96-3.6 7.73-7.95 7.73ZM407.97 57.88c7.82 0 14.15-4.69 15.37-11.15h-8.09c-.89 2.44-3.33 4.48-7.28 4.48-5.37 0-7.48-3.6-7.48-7.75v-.88h23.12v-6.19c0-8.5-5.3-15.5-15.77-15.5-10.47 0-16.32 6.8-16.32 16.38v4.83c0 9.9 6.45 15.78 16.45 15.78Zm-7.45-22.17c0-4.76 2-8.3 7.35-8.3 5 0 7.27 3.34 7.27 7.76v.88h-14.62v-.34ZM428.81 57.06h21.71c9.51 0 16.11-5.44 16.11-13.39 0-6.46-3.94-10.2-8.84-11.22a12.006 12.006 0 0 0 6-11c0-7.14-5.24-12-13.6-12h-21.38v47.61Zm9.25-7.48v-13h11.9c4.49 0 7.14 2.52 7.14 6.46s-2.52 6.53-7.07 6.53l-11.97.01Zm0-20.4V16.94h9.93c3.94 0 6.25 2.31 6.25 5.92s-2.17 6.32-6.18 6.32h-10ZM482.12 57.88c4.08 0 8.57-1.7 10.2-4.08v3.26h8.91V34.49c0-8.23-6-13.6-14.89-13.6-7.62 0-13.12 3.67-15.16 10.54h8.56c1-1.91 2.93-3.34 6.12-3.34 3.81 0 6.12 2.45 6.12 5.72v4.82a14.2 14.2 0 0 0-9-3c-8.5 0-14.28 3.54-14.28 11.22.03 6.88 5.47 11.03 13.42 11.03Zm2.4-6.12c-3.87 0-6.8-1.91-6.8-5.17s2.72-5 7.08-5c4.14 0 7.2 1.83 7.2 5s-3.42 5.17-7.48 5.17ZM520.74 57.88c8.77 0 15.3-5 15.3-11.83 0-5-2.65-7.76-7.89-9l-10.74-2.65c-1.84-.41-2.72-1.22-2.72-3 0-2.52 2-3.88 5.78-3.88 4.08 0 5.78 1.91 5.78 4.63v.61h8.09v-.55c0-7-5.51-11.28-14-11.28s-14.28 4-14.28 11.28c0 5.38 2.79 8.1 8.09 9.32l10.48 2.38c2 .48 2.92 1.5 2.92 3.2 0 2.72-2.86 4.28-6.73 4.28-4.35 0-7.14-1.84-7.14-4.9V46h-8.16v.61c0 7.53 6.24 11.27 15.22 11.27ZM555.02 57.88c7.82 0 14.15-4.69 15.37-11.15h-8.09c-.89 2.44-3.33 4.48-7.28 4.48-5.37 0-7.48-3.6-7.48-7.75v-.88h23.12v-6.19c0-8.5-5.3-15.5-15.77-15.5-10.47 0-16.32 6.8-16.32 16.38v4.83c0 9.9 6.46 15.78 16.45 15.78Zm-7.5-22.17c0-4.76 2-8.3 7.35-8.3 5 0 7.27 3.34 7.27 7.76v.88h-14.62v-.34Z"/><path fill="#9146FF" d="M67.52 13.4V0h-.64C55.73.45 46.52 7.71 40.84 13.38l-.32.31-.32-.31C34.52 7.71 25.31.45 14.16 0h-.64v13.4h-13v23.06c0 5.6.24 11.21.6 15.77a18.6 18.6 0 0 0 17.27 17c7.13.51 14.63.77 22.13.77 7.5 0 15-.26 22.14-.76a18.6 18.6 0 0 0 17.26-17c.36-4.56.57-10.17.6-15.77V13.4h-13Zm0 23.06c0 5.26-.22 10.51-.56 14.73a5.56 5.56 0 0 1-5.23 5.05c-14.12.97-28.29.97-42.41 0a5.57 5.57 0 0 1-5.24-5.05c-.34-4.19-.56-9.47-.56-14.73V13.4c9.44.4 18.76 10.45 21.59 14.41l5.41 7.52 5.41-7.52c2.83-4 12.16-14 21.59-14.41v23.06Z"/><path fill="#fff" d="M100.52 57.06h9.52V33.74l17.21 23.32h11.27l-18.43-24 17.83-23.6h-11.08l-16.8 22.85V9.46h-9.52v47.6ZM141.14 57.06h9.24V36.12c0-4.76 2.66-7.21 6.8-7.21 4.49 0 6.46 2.92 6.46 7v21.15h9.25V34.42c0-8.5-4.83-13.53-12.51-13.53-5 0-8.64 1.76-10.4 5V21.7h-8.84v35.36ZM193.74 57.88c10.61 0 16.66-6.94 16.66-16v-5c0-9-6-16-16.66-16s-16.66 6.93-16.66 16v5c0 9.06 6.05 16 16.66 16Zm7.69-15.37c0 4.62-2.45 8.09-7.69 8.09s-7.68-3.47-7.68-8.09v-6.26c0-4.62 2.45-8.09 7.68-8.09 5.23 0 7.69 3.47 7.69 8.09v6.26ZM262.17 21.7h-9l-5.15 23.73-7.2-23.73h-8.44l-7.21 23.73-5.16-23.73h-9l9.18 35.36h8.64l7.75-24.34 7.75 24.34h8.64l9.2-35.36ZM265.16 57.06h9.25V7.42h-9.25v49.64ZM295.64 57.88c7.82 0 14.15-4.69 15.37-11.15h-8.09c-.89 2.44-3.33 4.48-7.28 4.48-5.37 0-7.48-3.6-7.48-7.75v-.88h23.12v-6.19c0-8.5-5.3-15.5-15.77-15.5-10.47 0-16.33 6.8-16.33 16.38v4.83c0 9.9 6.46 15.78 16.46 15.78Zm-7.48-22.17c0-4.76 2-8.3 7.35-8.3 5 0 7.27 3.34 7.27 7.76v.88h-14.62v-.34ZM329.13 57.88c5.1 0 8.7-2.31 10.47-5v4.21h8.84V7.42h-9.25v18.09c-2-2.65-5.44-4.62-10.13-4.62-9.52 0-14.82 7.07-14.82 15.57v5.85c0 8.36 5.37 15.57 14.89 15.57Zm2.24-7.48c-5.37 0-7.88-3.81-7.88-8.5v-5c0-5 2.72-8.5 7.95-8.5 4.22 0 7.75 3 7.75 8.36v5.14c0 4.96-3.12 8.5-7.82 8.5ZM370.01 69.71c9.86 0 16.93-5.85 16.93-13.39V21.7h-8.84V26c-1.22-2.38-5-5.1-10.47-5.1-9.66 0-14.62 6.8-14.62 14.68v5.17c0 7.75 5 14.69 14.55 14.69 4.56 0 8.64-2.38 10.13-4.83v5.58c0 3.94-3 6.53-7.68 6.53-3.6 0-6.39-1.09-7.62-3.54h-9c1.46 6.66 8.32 10.53 16.62 10.53ZM369.74 48c-5 0-7.55-3.27-7.55-7.75v-4.06c0-4.83 2.65-7.89 7.82-7.89 4.42 0 7.68 3.13 7.68 7.89v4.08c0 4.96-3.6 7.73-7.95 7.73ZM407.97 57.88c7.82 0 14.15-4.69 15.37-11.15h-8.09c-.89 2.44-3.33 4.48-7.28 4.48-5.37 0-7.48-3.6-7.48-7.75v-.88h23.12v-6.19c0-8.5-5.3-15.5-15.77-15.5-10.47 0-16.32 6.8-16.32 16.38v4.83c0 9.9 6.45 15.78 16.45 15.78Zm-7.45-22.17c0-4.76 2-8.3 7.35-8.3 5 0 7.27 3.34 7.27 7.76v.88h-14.62v-.34ZM428.81 57.06h21.71c9.51 0 16.11-5.44 16.11-13.39 0-6.46-3.94-10.2-8.84-11.22a12.006 12.006 0 0 0 6-11c0-7.14-5.24-12-13.6-12h-21.38v47.61Zm9.25-7.48v-13h11.9c4.49 0 7.14 2.52 7.14 6.46s-2.52 6.53-7.07 6.53l-11.97.01Zm0-20.4V16.94h9.93c3.94 0 6.25 2.31 6.25 5.92s-2.17 6.32-6.18 6.32h-10ZM482.12 57.88c4.08 0 8.57-1.7 10.2-4.08v3.26h8.91V34.49c0-8.23-6-13.6-14.89-13.6-7.62 0-13.12 3.67-15.16 10.54h8.56c1-1.91 2.93-3.34 6.12-3.34 3.81 0 6.12 2.45 6.12 5.72v4.82a14.2 14.2 0 0 0-9-3c-8.5 0-14.28 3.54-14.28 11.22.03 6.88 5.47 11.03 13.42 11.03Zm2.4-6.12c-3.87 0-6.8-1.91-6.8-5.17s2.72-5 7.08-5c4.14 0 7.2 1.83 7.2 5s-3.42 5.17-7.48 5.17ZM520.74 57.88c8.77 0 15.3-5 15.3-11.83 0-5-2.65-7.76-7.89-9l-10.74-2.65c-1.84-.41-2.72-1.22-2.72-3 0-2.52 2-3.88 5.78-3.88 4.08 0 5.78 1.91 5.78 4.63v.61h8.09v-.55c0-7-5.51-11.28-14-11.28s-14.28 4-14.28 11.28c0 5.38 2.79 8.1 8.09 9.32l10.48 2.38c2 .48 2.92 1.5 2.92 3.2 0 2.72-2.86 4.28-6.73 4.28-4.35 0-7.14-1.84-7.14-4.9V46h-8.16v.61c0 7.53 6.24 11.27 15.22 11.27ZM555.02 57.88c7.82 0 14.15-4.69 15.37-11.15h-8.09c-.89 2.44-3.33 4.48-7.28 4.48-5.37 0-7.48-3.6-7.48-7.75v-.88h23.12v-6.19c0-8.5-5.3-15.5-15.77-15.5-10.47 0-16.32 6.8-16.32 16.38v4.83c0 9.9 6.46 15.78 16.45 15.78Zm-7.5-22.17c0-4.76 2-8.3 7.35-8.3 5 0 7.27 3.34 7.27 7.76v.88h-14.62v-.34Z"/><path fill="#9146FF" d="M67.52 13.4V0h-.64C55.73.45 46.52 7.71 40.84 13.38l-.32.31-.32-.31C34.52 7.71 25.31.45 14.16 0h-.64v13.4h-13v23.06c0 5.6.24 11.21.6 15.77a18.6 18.6 0 0 0 17.27 17c7.13.51 14.63.77 22.13.77 7.5 0 15-.26 22.14-.76a18.6 18.6 0 0 0 17.26-17c.36-4.56.57-10.17.6-15.77V13.4h-13Zm0 23.06c0 5.26-.22 10.51-.56 14.73a5.56 5.56 0 0 1-5.23 5.05c-14.12.97-28.29.97-42.41 0a5.57 5.57 0 0 1-5.24-5.05c-.34-4.19-.56-9.47-.56-14.73V13.4c9.44.4 18.76 10.45 21.59 14.41l5.41 7.52 5.41-7.52c2.83-4 12.16-14 21.59-14.41v23.06Z"/><path fill="#fff" d="M280.14 99.563h3.055v-3.576h-1.787c-1.17 0-1.593-.454-1.593-1.56v-8.19h3.608v-3.575h-3.608v-4.615h-4.452v4.615h-2.405v3.575h2.405v8.516c0 2.99 1.527 4.81 4.777 4.81ZM292.833 99.953c3.737 0 6.76-2.243 7.345-5.33h-3.868c-.422 1.17-1.592 2.144-3.477 2.144-2.568 0-3.575-1.722-3.575-3.704v-.423h11.05v-2.957c0-4.063-2.535-7.41-7.54-7.41-5.07 0-7.8 3.25-7.8 7.832v2.307c0 4.745 3.087 7.54 7.865 7.54Zm-3.575-10.596c0-2.275.975-3.965 3.51-3.965 2.372 0 3.477 1.593 3.477 3.706v.422h-6.987v-.162ZM311.345 90.983l5.687-8.32h-4.582l-3.348 5.005-3.347-5.006h-4.583l5.688 8.32-5.915 8.58h4.647l3.51-5.264 3.51 5.264h4.648l-5.915-8.58ZM324.764 99.563h3.055v-3.576h-1.787c-1.17 0-1.593-.454-1.593-1.56v-8.19h3.608v-3.575h-3.608v-4.615h-4.452v4.615h-2.405v3.575h2.405v8.516c0 2.99 1.527 4.81 4.777 4.81ZM331.639 104.438h3.77V73.562h-3.77v30.876ZM258.338 105.122h-2.378l2.089-5.476-6.138-16.115h2.41l5.014 13.691 4.82-13.69h2.411l-6.074 16.114-2.154 5.476ZM234.754 76.67h2.442v9.253c.997-1.636 2.925-2.77 5.496-2.77 4.146 0 6.813 3.022 6.813 7.208v2.455c0 4.029-2.539 7.208-6.877 7.208-2.732 0-4.853-1.417-5.56-2.896v2.518h-2.314V76.67Zm12.309 16.052v-2.266c0-2.959-1.704-5.351-4.821-5.351-2.732 0-5.046 2.046-5.046 5.35v2.078c0 3.116 1.768 5.54 5.014 5.54 3.406 0 4.853-2.393 4.853-5.351ZM220.053 76.67h2.442v22.976h-2.314v-2.518c-.707 1.48-2.828 2.896-5.56 2.896-4.338 0-6.877-3.18-6.877-7.208v-2.455c0-4.186 2.667-7.207 6.813-7.207 2.571 0 4.499 1.133 5.496 2.77V76.67Zm-9.867 13.786v2.266c0 2.958 1.446 5.35 4.853 5.35 3.246 0 5.014-2.423 5.014-5.54v-2.076c0-3.305-2.314-5.351-5.046-5.351-3.118 0-4.821 2.392-4.821 5.35ZM197.212 100.024c-4.275 0-7.264-2.676-7.264-7.019v-2.58c0-4.376 2.539-7.271 7.167-7.271 4.692 0 6.974 3.053 6.974 7.018v2.392h-11.795v.567c0 2.801 1.479 5.067 4.918 5.067 2.474 0 3.985-1.29 4.531-3.116h2.186c-.547 2.896-3.279 4.942-6.717 4.942Zm-4.918-9.789v.504h9.513v-.756c0-2.864-1.478-5.004-4.692-5.004-3.535 0-4.821 2.298-4.821 5.256ZM179.673 99.646V83.53h2.282v3.714c.61-2.486 2.378-3.808 5.367-3.808h.386v2.234h-.483c-3.117 0-5.109 2.015-5.109 6.075v7.9h-2.443ZM168.338 100.024c-4.275 0-7.264-2.676-7.264-7.019v-2.58c0-4.376 2.539-7.271 7.167-7.271 4.692 0 6.974 3.053 6.974 7.018v2.392H163.42v.567c0 2.801 1.479 5.067 4.918 5.067 2.474 0 3.985-1.29 4.531-3.116h2.186c-.547 2.896-3.279 4.942-6.717 4.942Zm-4.918-9.789v.504h9.513v-.756c0-2.864-1.478-5.004-4.692-5.004-3.535 0-4.821 2.298-4.821 5.256ZM158.505 83.531l-4.5 16.115h-2.314l-4.37-13.597-4.371 13.597h-2.314l-4.5-16.115h2.314l3.471 13.25 4.243-13.25h2.314l4.242 13.25 3.471-13.25h2.314ZM126.221 100.024c-4.693 0-7.36-3.148-7.36-7.114v-2.643c0-3.966 2.7-7.113 7.36-7.113s7.327 3.147 7.327 7.113v2.644c0 3.965-2.667 7.113-7.327 7.113Zm4.981-9.726c0-3.053-1.735-5.225-4.981-5.225-3.246 0-4.982 2.172-4.982 5.225v2.581c0 3.053 1.736 5.225 4.982 5.225 3.246 0 4.981-2.172 4.981-5.225V90.3ZM102.963 105.123h-2.443V83.531h2.314v2.518c.707-1.48 2.828-2.895 5.56-2.895 4.403 0 6.877 3.115 6.877 7.207v2.455c0 4.186-2.667 7.208-6.813 7.208-2.571 0-4.499-1.133-5.495-2.77v7.869Zm9.866-12.401v-2.266c0-2.959-1.446-5.351-4.853-5.351-3.246 0-5.013 2.423-5.013 5.54v2.077c0 3.305 2.313 5.35 5.045 5.35 3.118 0 4.821-2.392 4.821-5.35Z"/></svg>